<svg viewBox="0 0 108 108" xmlns="http://www.w3.org/2000/svg" fill-rule="evenodd" clip-rule="evenodd" stroke-linejoin="round" stroke-miterlimit="2"><path fill="#e6e6e6" d="M0 0h108v108H0z"/><path d="M72.996 55.861a3.005 3.005 0 00-3-3.004h-32c-1.656 0-3 1.348-3 3.004v17.526a2.997 2.997 0 003 2.995h32c1.656 0 3-1.34 3-2.995V55.86z" fill="gray"/><path d="M72.996 67.623a3.005 3.005 0 00-3-3.004h-32c-1.656 0-3 1.349-3 3.004v5.764a2.997 2.997 0 003 2.995h32c1.656 0 3-1.34 3-2.995v-5.764z" fill="#2f2f2f" fill-opacity=".2"/><path d="M72.996 55.861a3.005 3.005 0 00-3-3.004h-32c-1.656 0-3 1.348-3 3.004v5.764a2.997 2.997 0 003 2.994h32c1.656 0 3-1.339 3-2.994V55.86z" fill="#fff" fill-opacity=".2"/><path d="M72.996 56.862a3.003 3.003 0 00-3-3.005h-32c-1.656 0-3 1.346-3 3.005v15.524a3 3 0 003 2.995h32a3 3 0 003-2.995V56.862zM70.028 39.384c0-1.655-1.344-3-3-3H40.963c-1.655 0-3 1.345-3 3v9.476c0 1.655 1.345 3 3 3H67.03c1.655 0 3-1.345 3-3v-9.476z" fill="gray"/><path d="M70.028 42.991a3.008 3.008 0 00-3-3.002H40.963c-1.655 0-3 1.353-3 3.002v5.863a3 3 0 003 3.003H67.03a3 3 0 003-3.003v-5.863z" fill="#2f2f2f" fill-opacity=".2"/><path d="M70.028 39.39a3.004 3.004 0 00-3-3.007H40.963c-1.655 0-3 1.347-3 3.007v6.025a3.002 3.002 0 003 2.994H67.03c1.655 0 3-1.347 3-2.994V39.39z" fill="#fff" fill-opacity=".3"/><path d="M70.028 40.386a3.004 3.004 0 00-3-3.002H40.963c-1.655 0-3 1.348-3 3.002v7.474a3.004 3.004 0 003 3.001H67.03c1.655 0 3-1.347 3-3.001v-7.474z" fill="gray"/><g><path d="M58.548 35.733a.38.38 0 00-.38-.38h-8.344a.38.38 0 000 .759h8.345a.38.38 0 00.379-.38z" fill="gray"/><path d="M49.901 35.353h8.193l-.956-2.73a.454.454 0 00-.43-.304h-5.422a.454.454 0 00-.43.305l-.955 2.73z" fill="#ff3030"/><path d="M56.272 32.832a.19.19 0 00-.19-.19H51.91a.19.19 0 000 .38h4.172a.19.19 0 00.19-.19z" fill="#fff" fill-opacity=".3"/></g><g><path d="M70.3 41.404a.683.683 0 111.365 0v4.703a.683.683 0 11-1.366 0v-4.703z" fill="gray"/><path d="M70.3 44.438a.683.683 0 111.365 0v1.669a.683.683 0 11-1.366 0v-1.67z" fill="#2f2f2f" fill-opacity=".2"/><path d="M70.3 41.404a.683.683 0 111.365 0v1.669a.683.683 0 11-1.366 0v-1.67z" fill="#fff" fill-opacity=".3"/><path d="M70.3 41.859a.683.683 0 111.365 0v3.793a.683.683 0 11-1.366 0v-3.793z" fill="gray"/></g><g><path d="M71.935 32.15a.53.53 0 111.062 0v11.18a.531.531 0 01-1.062 0V32.15z" fill="gray"/><path d="M71.935 38.324a.53.53 0 111.062 0v5.006a.531.531 0 01-1.062 0v-5.006z" fill="#2f2f2f" fill-opacity=".2"/><path d="M71.935 32.15a.53.53 0 111.062 0v5.059a.531.531 0 01-1.062 0v-5.06z" fill="#fff" fill-opacity=".3"/><path d="M71.935 32.604a.53.53 0 111.062 0v10.271a.532.532 0 01-1.062 0v-10.27z" fill="gray"/></g><g><path d="M37.694 41.404a.683.683 0 10-1.366 0v4.703a.683.683 0 101.366 0v-4.703z" fill="gray"/><path d="M37.694 44.438a.683.683 0 10-1.366 0v1.669a.683.683 0 101.366 0v-1.67z" fill="#2f2f2f" fill-opacity=".2"/><path d="M37.694 41.404a.683.683 0 10-1.366 0v1.669a.683.683 0 101.366 0v-1.67z" fill="#fff" fill-opacity=".3"/><path d="M37.694 41.859a.683.683 0 10-1.366 0v3.793a.683.683 0 101.366 0v-3.793z" fill="gray"/></g><g><path d="M36.058 32.15a.53.53 0 10-1.062 0v11.18a.531.531 0 001.062 0V32.15z" fill="gray"/><path d="M36.058 38.324a.53.53 0 10-1.062 0v5.006a.531.531 0 001.062 0v-5.006z" fill="#2f2f2f" fill-opacity=".2"/><path d="M36.058 32.15a.53.53 0 10-1.062 0v5.059a.531.531 0 001.062 0v-5.06z" fill="#fff" fill-opacity=".3"/><path d="M36.058 32.604a.53.53 0 10-1.062 0v10.271a.532.532 0 001.062 0v-10.27z" fill="gray"/></g><g><path d="M53.029 43.375a3.095 3.095 0 01-.023-.375V25.483c0-1.655 1.344-3 3-3h31.988c.13 0 .257.009.382.024l.075.011.005.001c.122.019.242.045.359.078l.071.021.045.015a3.003 3.003 0 012.063 2.85V43c0 1.656-1.344 3-3 3H56.006c-.362 0-.71-.064-1.031-.182l-.069-.026-.01-.004a2.966 2.966 0 01-.742-.428 3.005 3.005 0 01-.416-.397l-.017-.02a3.023 3.023 0 01-.507-.843l-.026-.069-.009-.025-.015-.044-.02-.061-.003-.009-.01-.034a2.347 2.347 0 01-.054-.208l-.01-.045-.012-.061a2.982 2.982 0 01-.026-.169zm3.012-24.249a3.021 3.021 0 01-.069-.642V9.012c0-1.655 1.344-3 3-3h26.056a2.993 2.993 0 012.082.842c.566.545.918 1.311.918 2.158v9.472c0 1.656-1.344 3-3 3H58.972a2.987 2.987 0 01-2.246-1.013l-.069-.079a2.995 2.995 0 01-.601-1.2l-.007-.031-.008-.035zm32.726-2.744a.681.681 0 01-.469-.648v-4.702a.683.683 0 01.882-.652l.003.001.032.01.038.016c.241.105.41.346.41.625v4.702a.683.683 0 01-.896.648zM54.391 16a.676.676 0 01-.054-.266v-4.702a.683.683 0 011.365 0v4.702a.683.683 0 01-1.036.584l-.011-.007a.6.6 0 01-.094-.072l-.014-.013-.032-.033c-.012-.012-.022-.025-.032-.038l-.01-.013-.004-.005a.722.722 0 01-.078-.137zm35.767-2.607a.532.532 0 01-.225-.434V1.781a.53.53 0 111.061 0v11.178a.531.531 0 01-.79.463l-.046-.029zm-37.04-.109a.526.526 0 01-.112-.325V1.781a.531.531 0 011.061 0v11.178a.53.53 0 01-.949.325zm14.787-8.3l.955-2.729a.455.455 0 01.429-.304h5.422c.042 0 .083.005.122.016l.017.006a.518.518 0 01.124.062c.01.007.02.014.03.023a.406.406 0 01.072.077l.007.01c.024.033.043.07.057.11l.955 2.729h.076a.378.378 0 01.245.09l.01.009.004.003a.38.38 0 01-.259.656h-8.342a.378.378 0 01-.349-.231l-.007-.017a.494.494 0 01-.023-.131.38.38 0 01.379-.379h.076z" fill="url(#_Radial1)" transform="matrix(1 0 0 1 -17.998 30.368)"/></g><defs><radialGradient id="_Radial1" cx="0" cy="0" r="1" gradientUnits="userSpaceOnUse" gradientTransform="matrix(0 44.7503 -37.9884 0 53.006 1.25)"><stop offset="0" stop-color="#fff" stop-opacity=".1"/><stop offset="1" stop-color="#fff" stop-opacity="0"/></radialGradient></defs></svg>