<svg viewBox="0 0 108 108" xmlns="http://www.w3.org/2000/svg" fill-rule="evenodd" clip-rule="evenodd" stroke-linecap="round"><path fill="none" d="M0 0h108v108H0z"/><g transform="matrix(1 0 0 1 31.695 -972.628)"><ellipse cx="14.375" cy="1016.49" rx="3.375" ry="3.875" fill="#263238" fill-opacity=".2"/><circle cx="14.375" cy="1016.99" r="3.375" fill="#fff"/></g><g transform="matrix(1 0 0 1 47.547 -972.628)"><ellipse cx="14.375" cy="1016.49" rx="3.375" ry="3.875" fill="#263238" fill-opacity=".2"/><circle cx="14.375" cy="1016.99" r="3.375" fill="#fff"/></g><g transform="translate(34.933 45.557) scale(.79431)"><circle cx="24" cy="24" r="9.55" fill="none" stroke="#ccc" stroke-width="1.9"/><path d="M24 17.75c-2.881 0-5.32 1.985-6.033 4.65h3.213A3.215 3.215 0 0124 20.75 3.227 3.227 0 0127.25 24 3.227 3.227 0 0124 27.25a3.22 3.22 0 01-2.93-1.85h-3.154c.642 2.766 3.132 4.85 6.084 4.85 3.434 0 6.25-2.816 6.25-6.25s-2.816-6.25-6.25-6.25z" fill="#ccc" fill-rule="nonzero"/></g></svg>